/* XPM */
static char * logo1_xpm[] = {
"50 72 368 2",
"  	c None",
". 	c #8CD6F0",
"+ 	c #8FD3EB",
"@ 	c #9BC1D3",
"# 	c #A0B7C8",
"$ 	c #9DBDCF",
"% 	c #92CDE4",
"& 	c #A8AAB9",
"* 	c #D15C63",
"= 	c #E92B2F",
"- 	c #EC1F26",
"; 	c #EC1E25",
"> 	c #EC1E26",
", 	c #EB2328",
"' 	c #D74147",
") 	c #CE636A",
"! 	c #EC1F25",
"~ 	c #EC1D25",
"{ 	c #CC2F36",
"] 	c #89D1EA",
"^ 	c #95C9DF",
"/ 	c #DC464B",
"( 	c #EC1D24",
"_ 	c #A16C79",
": 	c #90D1E8",
"< 	c #D94B50",
"[ 	c #CE2D34",
"} 	c #84C1D8",
"| 	c #C67078",
"1 	c #CA2F37",
"2 	c #A6636F",
"3 	c #988392",
"4 	c #968C9C",
"5 	c #9C8393",
"6 	c #AA6B78",
"7 	c #B2535E",
"8 	c #86AABD",
"9 	c #A5AEBF",
"0 	c #EC2026",
"a 	c #E22127",
"b 	c #957582",
"c 	c #85C9E1",
"d 	c #8CD5EF",
"e 	c #8DD5EF",
"f 	c #D94A4F",
"g 	c #EA1D25",
"h 	c #8E8391",
"i 	c #8BD5EF",
"j 	c #A9A6B5",
"k 	c #BD3F47",
"l 	c #89D1EB",
"m 	c #D3555D",
"n 	c #978696",
"o 	c #99C2D6",
"p 	c #EB2127",
"q 	c #E22027",
"r 	c #83BED4",
"s 	c #8DD6E6",
"t 	c #6FC092",
"u 	c #8AD3ED",
"v 	c #BA8592",
"w 	c #C33B43",
"x 	c #8BD4EE",
"y 	c #6FC582",
"z 	c #4CB34A",
"A 	c #80CBC7",
"B 	c #8CD6EF",
"C 	c #D74D54",
"D 	c #AE616D",
"E 	c #89D3D3",
"F 	c #50B84B",
"G 	c #4EB74A",
"H 	c #51B84D",
"I 	c #70BAB8",
"J 	c #91CEE6",
"K 	c #EB2429",
"L 	c #9E8291",
"M 	c #7ACEB8",
"N 	c #46A746",
"O 	c #7ABFD1",
"P 	c #A6ABBC",
"Q 	c #8F9EB1",
"R 	c #80CED1",
"S 	c #4DB44B",
"T 	c #4CB449",
"U 	c #539B80",
"V 	c #B88794",
"W 	c #85B7CC",
"X 	c #73BCBE",
"Y 	c #5CA395",
"Z 	c #87CFE8",
"` 	c #C86872",
" .	c #83C8E0",
"..	c #9FC5D4",
"+.	c #90C9DE",
"@.	c #D64E55",
"#.	c #D5282F",
"$.	c #88D0E9",
"%.	c #8DD6EF",
"&.	c #DA7354",
"*.	c #8AA2AC",
"=.	c #E1383D",
"-.	c #CD3139",
";.	c #A5C0C9",
">.	c #DB4F28",
",.	c #7FB9CD",
"'.	c #EA262B",
").	c #C73A42",
"!.	c #C69182",
"~.	c #AF5D46",
"{.	c #8BD4ED",
"].	c #92CDE3",
"^.	c #EC2025",
"/.	c #C2424B",
"(.	c #E16743",
"_.	c #918887",
":.	c #C04852",
"<.	c #A1C4D1",
"[.	c #E35127",
"}.	c #7FAEBE",
"|.	c #9EB9CC",
"1.	c #BD4E58",
"2.	c #B8A39F",
"3.	c #CC4E2B",
"4.	c #85CBE4",
"5.	c #A2B1C3",
"6.	c #BA525D",
"7.	c #CC8673",
"8.	c #BA593E",
"9.	c #A5ABBC",
"0.	c #B75864",
"a.	c #DC6D4D",
"b.	c #B36651",
"c.	c #A8A6B7",
"d.	c #B45E6A",
"e.	c #8DD5EE",
"f.	c #E85A31",
"g.	c #AF6D5C",
"h.	c #ABA1B1",
"i.	c #B06572",
"j.	c #97CCE0",
"k.	c #E75328",
"l.	c #B56B58",
"m.	c #AC9DAD",
"n.	c #AB6D7B",
"o.	c #9EC4D3",
"p.	c #E65227",
"q.	c #C15F45",
"r.	c #AF98A8",
"s.	c #A77786",
"t.	c #9FC3D2",
"u.	c #DC522C",
"v.	c #8AC8DF",
"w.	c #B192A1",
"x.	c #A08292",
"y.	c #88CFE8",
"z.	c #7EBCD2",
"A.	c #B38F88",
"B.	c #8C8F9C",
"C.	c #C42429",
"D.	c #D42228",
"E.	c #968898",
"F.	c #77AEC1",
"G.	c #5F828F",
"H.	c #9AC7D8",
"I.	c #E5542A",
"J.	c #D6765B",
"K.	c #9F9EA1",
"L.	c #B08491",
"M.	c #942B2D",
"N.	c #D32328",
"O.	c #80808D",
"P.	c #8ED3EC",
"Q.	c #E4562D",
"R.	c #958D8E",
"S.	c #BD7884",
"T.	c #7A2F30",
"U.	c #CB2329",
"V.	c #81AFC3",
"W.	c #D07156",
"X.	c #E25026",
"Y.	c #80A9B8",
"Z.	c #915B62",
"`.	c #C72429",
" +	c #7E2E2F",
".+	c #83C2D9",
"++	c #ACA2A2",
"@+	c #B7563A",
"#+	c #79B3C7",
"$+	c #8E2D2E",
"%+	c #BC262A",
"&+	c #8C2B2E",
"*+	c #7BB7CC",
"=+	c #8CD3EC",
"-+	c #A7827A",
";+	c #AD5E49",
">+	c #829CA7",
",+	c #8DD4ED",
"'+	c #8DD1E9",
")+	c #89D0E9",
"!+	c #BA4046",
"~+	c #EB1D25",
"{+	c #B3252A",
"]+	c #516971",
"^+	c #8AD2EC",
"/+	c #8ABED3",
"(+	c #7F6A71",
"_+	c #87C4DC",
":+	c #E33339",
"<+	c #9A343A",
"[+	c #7CB7CC",
"}+	c #628795",
"|+	c #8393A1",
"1+	c #88BCD2",
"2+	c #90D0E7",
"3+	c #DE2529",
"4+	c #C7252A",
"5+	c #8D7682",
"6+	c #73A7BA",
"7+	c #618592",
"8+	c #879BAA",
"9+	c #88BDD2",
"0+	c #9395A6",
"a+	c #71A4B6",
"b+	c #4D6169",
"c+	c #6A96A6",
"d+	c #858F9C",
"e+	c #88C1D7",
"f+	c #AE9BAB",
"g+	c #E81E25",
"h+	c #83BACF",
"i+	c #828794",
"j+	c #88C7DF",
"k+	c #BF7B87",
"l+	c #CC2F37",
"m+	c #83828C",
"n+	c #8BD3ED",
"o+	c #D1575F",
"p+	c #B15863",
"q+	c #8DD1EA",
"r+	c #82818A",
"s+	c #E53035",
"t+	c #978998",
"u+	c #8ED1E9",
"v+	c #889FAF",
"w+	c #808F9C",
"x+	c #9CBCD0",
"y+	c #E41F26",
"z+	c #83BBD0",
"A+	c #869FAF",
"B+	c #848B95",
"C+	c #86B1C4",
"D+	c #B68C99",
"E+	c #BF3E46",
"F+	c #82A6B8",
"G+	c #7F828E",
"H+	c #D2565E",
"I+	c #9E7886",
"J+	c #8ABACF",
"K+	c #8ACFE8",
"L+	c #93CCE3",
"M+	c #EA252B",
"N+	c #E42027",
"O+	c #84B6CB",
"P+	c #89A2B0",
"Q+	c #82767F",
"R+	c #88B6CB",
"S+	c #B294A2",
"T+	c #B8464F",
"U+	c #808997",
"V+	c #819DAD",
"W+	c #87BBD0",
"X+	c #D74C53",
"Y+	c #9090A0",
"Z+	c #8DC9DF",
"`+	c #85B8CE",
" @	c #8ACBE2",
".@	c #A2B3C4",
"+@	c #CB3138",
"@@	c #86CCE5",
"#@	c #8AC4DB",
"$@	c #D15B62",
"%@	c #977F8D",
"&@	c #8CD3ED",
"*@	c #8BACBC",
"=@	c #7D91A0",
"-@	c #A6AABA",
";@	c #889DAB",
">@	c #7C757D",
",@	c #E03C42",
"'@	c #8F8B9A",
")@	c #8BA1B0",
"!@	c #7D7F8A",
"~@	c #8ED4ED",
"{@	c #CF6067",
"]@	c #B54750",
"^@	c #8CADBD",
"/@	c #80818B",
"(@	c #848994",
"_@	c #7F97A6",
":@	c #C96E75",
"<@	c #D8262E",
"[@	c #84B3C8",
"}@	c #8FC4D9",
"|@	c #87C2D8",
"1@	c #88A4B4",
"2@	c #83A0B0",
"3@	c #87C5DC",
"4@	c #95CAE0",
"5@	c #D15D64",
"6@	c #E71F26",
"7@	c #8D8A99",
"8@	c #8FCCE2",
"9@	c #85757B",
"0@	c #86BAD0",
"a@	c #B397A3",
"b@	c #E4353A",
"c@	c #9A6B76",
"d@	c #96C8DD",
"e@	c #BF7D88",
"f@	c #AF9AA8",
"g@	c #99C1D5",
"h@	c #8ED2EB",
"i@	c #85AABB",
"j@	c #87BDD4",
"k@	c #8DCFE8",
"l@	c #9EBCCD",
"m@	c #BC848F",
"n@	c #E03E42",
"o@	c #A25D68",
"p@	c #8FD2EB",
"q@	c #DB484D",
"r@	c #E53136",
"s@	c #D9494F",
"t@	c #D05C64",
"u@	c #CA6770",
"v@	c #C96871",
"w@	c #CD6068",
"x@	c #D74E54",
"y@	c #E53337",
"z@	c #E91E25",
"A@	c #9D646F",
"B@	c #88D0E8",
"C@	c #B68E9A",
"D@	c #DC242B",
"E@	c #907F8D",
"F@	c #8AD3EC",
"G@	c #DC4449",
"H@	c #B6454D",
"I@	c #84ACBF",
"J@	c #DE2E34",
"K@	c #B5444D",
"L@	c #8994A5",
"M@	c #88D1EA",
"N@	c #919FB2",
"O@	c #A47886",
"P@	c #B45662",
"Q@	c #C23D46",
"R@	c #D42930",
"S@	c #D3292F",
"T@	c #CD2C34",
"U@	c #BF3A42",
"V@	c #AE5661",
"W@	c #977F8E",
"X@	c #82B3C7",
"Y@	c #89D2EB",
"Z@	c #86CDE6",
"`@	c #86CDE5",
"                                                                                                    ",
"                                                                                                    ",
"                                                                        . . . . . . . .             ",
"                                                                  . . . . . . . + @ # $ %           ",
"                                                                . . . . . . & * = - ; > , '         ",
"                                                            . . . . . . % ) ! ~ ~ ~ ~ ~ ~ { ]       ",
"                                                          . . . . . . ^ / ( ~ ~ ~ ~ ~ ( ( _ .       ",
"                                                        . . . . . . : < ~ ( ~ ( ( ~ ~ ( [ } . .     ",
"                                                    . . . . . . . . | ~ ~ 1 2 3 4 5 6 7 8 . . .     ",
"                                                  . . . . . . . . 9 0 a b c . . . . . d . . . .     ",
"                                                . . . . . . . . e f g h i . . . . . . . . . . .     ",
"                                              . . . . . . . . . j ; k l . . . . . . . . . . . .     ",
"                                            . . . . . . . . . . m ~ n . . . . . . . . . . . . .     ",
"                                          . . . . . . . . . . o p q r . . . . s t u . . . . . . .   ",
"                                        . . . . . . . . . . . v ~ w x . . . . y z A B . . . . . .   ",
"                                        . . . . . . . . . . . C ~ D . . . . E F G H I . . . . . .   ",
"                                      . . . . . . . . . . . J K ~ L . . . . M G G N O . . . . .     ",
"                                    . . . . . . . . . . . . P ~ ~ Q . . . . R S T U . . . . . .     ",
"                                  . . . . . . . . . . . . . V ~ g W . . . . . X Y Z . . . . . .     ",
"                                . . . . . . . . . . . . . . ` ~ q  .. . . . ..+.. . . . . . . .     ",
"                                . . . . . . . . . . . . . . @.~ #.$.. . . %.&.*.. . . . . . . .     ",
"                              . . . . . . . . . . . . . . . =.~ -.x . . . ;.>.,.. . . . . . . .     ",
"                            . . . . . . . . . . . . . . . e '.~ ).B . . . !.~.{.. . . . . . . .     ",
"                            . . . . . . . . . . . . . . . ].^.~ /.. . . %.(._.. . . . . . . .       ",
"                          . . . . . . . . . . . . . . . . o ; ~ :.. . . <.[.}.. . . . . . . .       ",
"                        . . . . . . . . . . . . . . . . . |.~ ~ 1.. . . 2.3.4.. . . . . . . .       ",
"                        . . . . . . . . . . . . . . . . . 5.( ~ 6.. . . 7.8.i . . . . . . .         ",
"                      . . . . . . . . . . . . . . . . . . 9.~ ~ 0.. . . a.b.. . . . . . . .         ",
"                      . . . . . . . . . . . . . . . . . . c.( ( d.. . e.f.g.. . . . . . . .         ",
"                    . . . . . . . . . . . . . . . . . . . h.~ ~ i.. . j.k.l.. . . . . . . .         ",
"                    . . . . . . . . . . . . . . . . . . . m.~ ~ n.. . o.p.q.d . . . . . .           ",
"                  . . . . . . . . . . . . . . . . . . . . r.~ ( s.. . t.p.u.v.. . . . . .           ",
"                  . . . . . . . . . . . . . . . . . . . . w.( ~ x.y.z.t.p.p.A.. . . . .             ",
"                . . . . . . . . . . . . . . . . . . . . . B.C.D.E.F.G.H.p.p.I.J.K.. . .             ",
"                . . . . . . . . . . . . . . . . . . . . . L.M.N.O.d . P.Q.p.p.p.R.. . .             ",
"              . . . . . . . . . . . . . . . . . . . . . . S.T.U.V.. . . W.p.p.X.Y.. .               ",
"              . . . . . . . . . . . . . . . . . . . . . i Z.`. +.+. . . ++p.p.@+$.. .               ",
"            . . . . . . . . . . . . . . . . . . . . . . #+$+%+&+*+. . . =+-+;+>+. .                 ",
"            . . . . . . . . . . . . . . . . . . . ,+'+. )+!+~+{+]+^+. . . . x . . .                 ",
"          . . . . . . . . . . . . . . . . . . . . /+(+_+. :+~ <+[+}+d . . . . . .                   ",
"          . . . . . . . . . . . . . . . . . . . . . |+1+2+3+4+5+. 6+7+^+. . . . .                   ",
"          . . . . . . . . . . . . . . . . . . . . . 8+9+|.~ ~ 0+. . a+b+c+. . .                     ",
"        . . . . . . . . . . . . . . . . . . . . . . d+e+f+~ g+h+. . . c 6+. . .                     ",
"        . . . . . . . . . . . . . . . . . . . . . . i+j+k+~ l+l . . . . . . .                       ",
"        . . . . . . . . . . . . . . . . . . . . . . m+n+o+~ p+. . . . . . . .                       ",
"      . . . . . . . . . . . . . . . . . . . . . . q+r+e s+( t+. . . . . . .                         ",
"      . . . . . . . . . . . . . . . . . . . . . u+v+w+x+; y+z+. . . . . .                           ",
"      . . . . . . . . . . . . . . . . . . . . . A+B+C+D+~ E+x . . . . . .                           ",
"      . . . . . . . . . . . . . . . . . . . . . F+G+B H+~ I+. . . . . .                             ",
"      . . . . . . . . . . . . . . . . . . . . . J+K+L+M+N+O+. . . . .                               ",
"    . . . . . . . . . . . . . . . . . . . . . P+Q+R+S+~ T+x . . . . .                               ",
"    . . . . . . . . . . . . . . . . . . . . . U+V+W+X+~+Y+. . . . .                                 ",
"    . . . . . . . . . . . . . . . . . . . . Z+`+ @.@! +@@@. . . .                                   ",
"    . . . . . . . . . . . . . . . . . . . d m+#@. $@~ %@. . . .                                     ",
"    . . . . . . . . . . . . . . . . . . &@*@=@n+-@- +@c . . . .                                     ",
"    . . . . . . . . . . . . . . . . . . ;@>@d % ,@g '@. . . .                                       ",
"    . . . . . . . . . . . . . . . ,+. )@!@d ~@{@~ ]@] . . .                                         ",
"    . . . . . . . . . . . . . . ^@/@(@_@. ~@:@~ <@[@. . .                                           ",
"    . . . . . . . . . . . . }@|@1@2@3@. 4@5@~ 6@7@. . .                                             ",
"    . . . . . . . . . . . 8@9@0@e+. + a@b@~ ~+c@x . .                                               ",
"    . . d@e@f@g@h@B . . . i@j@k@l@m@n@~ ~ ~+o@$.. .                                                 ",
"    . p@q@~ ~ ! r@s@t@u@v@w@x@y@! ~ ~ ~ z@A@B@. .                                                   ",
"    . C@~ ~ ~ ( ( ( ~ ~ ( ~ ~ ~ ~ ~ ~ D@E@F@. .                                                     ",
"      G@( ~ ~ ~ ~ ( ~ ~ ~ ~ ~ ~ ~ z@H@I@. . .                                                       ",
"      J@~+~ ~ ~ ( ~ ( ( ~ ~ ~ N+K@L@M@. . .                                                         ",
"        N@O@P@Q@{ R@S@T@U@V@W@X@u . . .                                                             ",
"        . . . i Y@Z@`@$.x . . . . . .                                                               ",
"          . . . . . . . . . . . .                                                                   ",
"            . . . . . . . . .                                                                       ",
"                                                                                                    ",
"                                                                                                    ",
"                                                                                                    "};
